<svg width="19" height="14" viewBox="0 0 19 14" fill="none" xmlns="http://www.w3.org/2000/svg">
<path opacity="0.3" fill-rule="evenodd" clip-rule="evenodd" d="M17.838 6.26853L11.994 0.274218C11.6375 -0.0914061 11.0591 -0.0914061 10.7027 0.274218C10.346 0.640303 10.346 1.23321 10.7027 1.59883L14.9878 5.99419H1.01853C0.514316 5.99419 0.105469 6.41337 0.105469 6.93084C0.105469 7.44783 0.514316 7.86748 1.01853 7.86748H14.9878L10.7028 12.2628C10.3461 12.628 10.3461 13.2214 10.7028 13.587C10.881 13.7696 11.1148 13.8609 11.3485 13.8609C11.5822 13.8609 11.8158 13.7696 11.9941 13.587L17.838 7.59268C18.1946 7.22753 18.1946 6.63415 17.838 6.26853Z" fill="#0F2137"/>
</svg>
